<svg xmlns="http://www.w3.org/2000/svg" width="48" height="48" viewBox="0 0 48 48">
  <g id="Group_175954" data-name="Group 175954" transform="translate(-715 -517)">
    <rect id="ic_Integrations_facebook_" data-name="ic_Integrations_facebook " width="48" height="48" rx="8" transform="translate(715 517)" fill="#2ef93e"/>
    <g id="chat" transform="translate(723 525)">
      <path id="Union_55" data-name="Union 55" d="M22934,13578l4-7h6a2,2,0,0,0,2-2v-12a2,2,0,0,0-2-2h-20a2.006,2.006,0,0,0-2,2v12a2.006,2.006,0,0,0,2,2h9v2h-9a4,4,0,0,1-4-4v-12a4,4,0,0,1,4-4h20a4,4,0,0,1,4,4v12a4,4,0,0,1-4,4h-4.838l-3.42,6Zm-8-11v-2h10v2Zm0-6v-2h16v2Z" transform="translate(-22918 -13549)" fill="#fff" stroke="#fff" stroke-width="1"/>
      <rect id="_Transparent_Rectangle_" data-name="&lt;Transparent Rectangle&gt;" width="32" height="32" fill="none"/>
    </g>
  </g>
</svg>
