<svg xmlns="http://www.w3.org/2000/svg" xmlns:xlink="http://www.w3.org/1999/xlink" width="425" height="134" viewBox="0 0 425 134">
  <defs>
    <linearGradient id="linear-gradient" x1="-0.202" y1="0.466" x2="1.839" y2="0.597" gradientUnits="objectBoundingBox">
      <stop offset="0" stop-color="#2ef93e"/>
      <stop offset="1" stop-color="#007ff9"/>
    </linearGradient>
    <linearGradient id="linear-gradient-2" x1="-1.018" y1="0.375" x2="1.107" y2="0.547" xlink:href="#linear-gradient"/>
  </defs>
  <g id="Group_172752" data-name="Group 172752" transform="translate(19085.5 11217.333)">
    <rect id="Rectangle_161034" data-name="Rectangle 161034" width="425" height="134" transform="translate(-19085.5 -11217.333)" fill="#fff" opacity="0"/>
    <g id="Group_172751" data-name="Group 172751" transform="translate(-19057.029 -11185.453)">
      <g id="Group_172747" data-name="Group 172747" transform="translate(0 0)">
        <g id="Group_172746" data-name="Group 172746">
          <path id="Path_103505" data-name="Path 103505" d="M162.244,256.929a24.482,24.482,0,1,1,.1-47.25,32.188,32.188,0,0,1,7.158-4.953,35.059,35.059,0,0,0-50.87,45.77l-4.883,18.224,18.224-4.883a35.075,35.075,0,0,0,37.432-1.913A32.221,32.221,0,0,1,162.244,256.929Z" transform="translate(-113.747 -198.236)" fill="url(#linear-gradient)"/>
          <path id="Path_103506" data-name="Path 103506" d="M256.049,269.055,252.34,255.21a26.621,26.621,0,1,0-10.135,10.135Zm-31.987-8.316a18.6,18.6,0,1,1,18.6-18.6A18.6,18.6,0,0,1,224.062,260.739Z" transform="translate(-158.917 -207.027)" fill="url(#linear-gradient-2)"/>
        </g>
        <path id="Path_103507" data-name="Path 103507" d="M266.83,267.167a2.365,2.365,0,1,0-2.365,2.365A2.365,2.365,0,0,0,266.83,267.167Z" transform="translate(-189.247 -232.113)" fill="#ff7124"/>
        <path id="Path_103508" data-name="Path 103508" d="M225.941,265.8a3.686,3.686,0,1,0-3.687,3.687A3.686,3.686,0,0,0,225.941,265.8Z" transform="translate(-167.092 -230.744)" fill="#ff7124"/>
        <path id="Path_103509" data-name="Path 103509" d="M177.192,263.852a5.564,5.564,0,1,0-5.564,5.564A5.564,5.564,0,0,0,177.192,263.852Z" transform="translate(-140.372 -228.798)" fill="#ff7124"/>
      </g>
      <g id="Group_172750" data-name="Group 172750" transform="translate(104.636 15.008)">
        <g id="Group_172748" data-name="Group 172748" transform="translate(0 0)">
          <path id="Path_103510" data-name="Path 103510" d="M353.453,249.566a9.338,9.338,0,0,0-4.344-1.3v-.407a10.418,10.418,0,0,0,3.76-1.6,8.313,8.313,0,0,0,2.606-2.933,8.636,8.636,0,0,0,.964-4.154,9.693,9.693,0,0,0-1.507-5.376,10.014,10.014,0,0,0-4.493-3.665A18.3,18.3,0,0,0,343,228.8H326.82v40.452h17.266a17.972,17.972,0,0,0,7.656-1.452,10.326,10.326,0,0,0,6.272-9.733,10.011,10.011,0,0,0-1.263-5.144A9.157,9.157,0,0,0,353.453,249.566ZM335.345,235.72h6.516a6.45,6.45,0,0,1,4.385,1.344,4.451,4.451,0,0,1,1.533,3.515,4.768,4.768,0,0,1-.787,2.756,5.107,5.107,0,0,1-2.158,1.778,7.486,7.486,0,0,1-3.135.624h-6.353Zm12.2,25.167q-1.643,1.385-5.2,1.384h-7V251.494h7.195a8,8,0,0,1,3.556.733,5.447,5.447,0,0,1,2.294,2.022,5.517,5.517,0,0,1,.8,2.974A4.556,4.556,0,0,1,347.548,260.888Z" transform="translate(-326.82 -228.797)" fill="#fff"/>
          <path id="Path_103511" data-name="Path 103511" d="M417.674,252.43a12.784,12.784,0,0,0-4.561-2.877,16.089,16.089,0,0,0-5.62-.964,14.771,14.771,0,0,0-7.752,1.981,13.417,13.417,0,0,0-5.1,5.511,17.77,17.77,0,0,0-1.805,8.2,18,18,0,0,0,1.805,8.321,12.721,12.721,0,0,0,5.2,5.416,16.246,16.246,0,0,0,8.064,1.9,17.489,17.489,0,0,0,6.6-1.154,12.027,12.027,0,0,0,4.656-3.231,10.5,10.5,0,0,0,2.375-4.873l-7.764-.516a4.91,4.91,0,0,1-1.236,1.9,5.5,5.5,0,0,1-1.968,1.194,7.55,7.55,0,0,1-2.552.408,6.857,6.857,0,0,1-3.6-.937,6.319,6.319,0,0,1-2.43-2.688,9.119,9.119,0,0,1-.847-3.733H421.8v-2.281a19.231,19.231,0,0,0-1.086-6.773A13.013,13.013,0,0,0,417.674,252.43Zm-13.616,3.38a6.15,6.15,0,0,1,3.489-.95,6.082,6.082,0,0,1,3.462.937,5.714,5.714,0,0,1,2.1,2.647,9.528,9.528,0,0,1,.631,2.66H401.16a8.222,8.222,0,0,1,.712-2.715A6.16,6.16,0,0,1,404.058,255.81Z" transform="translate(-360.415 -238.869)" fill="#fff"/>
          <path id="Path_103512" data-name="Path 103512" d="M472.572,248.534a7.315,7.315,0,0,0-4.48,1.452,7.952,7.952,0,0,0-2.8,4.276h-.326v-5.321h-8.118v30.353h8.389V262.135a6.394,6.394,0,0,1,.828-3.272,5.84,5.84,0,0,1,2.294-2.226,6.739,6.739,0,0,1,3.285-.8,16.771,16.771,0,0,1,1.941.122,9.163,9.163,0,0,1,1.643.312v-7.439a7.173,7.173,0,0,0-1.29-.231Q473.224,248.534,472.572,248.534Z" transform="translate(-392.996 -238.841)" fill="#fff"/>
          <path id="Path_103513" data-name="Path 103513" d="M537.232,248.941l-6.353,22.29h-.326l-6.271-22.29h-8.743v-.109a7.183,7.183,0,0,0-1.29-.231q-.721-.068-1.372-.068a7.316,7.316,0,0,0-4.479,1.452,7.95,7.95,0,0,0-2.8,4.276h-.325v-5.321h-8.118v30.353h8.389V262.135a6.394,6.394,0,0,1,.828-3.272,5.842,5.842,0,0,1,2.294-2.226,6.74,6.74,0,0,1,3.285-.8,16.786,16.786,0,0,1,1.941.122,9.163,9.163,0,0,1,1.643.312v-7.1l10.779,30.991-.489,1.3a3.4,3.4,0,0,1-2.294,2.4,7.286,7.286,0,0,1-3.624-.285l-.271-.054-1.9,6.272a10.718,10.718,0,0,0,2.294.624,15.882,15.882,0,0,0,3,.217,12.984,12.984,0,0,0,5.349-.991,9.694,9.694,0,0,0,3.651-2.81,14.144,14.144,0,0,0,2.294-4.263l11.783-33.638Z" transform="translate(-413.509 -238.841)" fill="#fff"/>
        </g>
        <g id="Group_172749" data-name="Group 172749" transform="translate(134.339)">
          <path id="Path_103514" data-name="Path 103514" d="M633.608,228.8H600.377v7.059h12.407v33.394h8.443V235.855h12.38Z" transform="translate(-600.377 -228.797)" fill="#fff"/>
          <path id="Path_103515" data-name="Path 103515" d="M684.916,251.019a12.994,12.994,0,0,0-4.113-1.833,19.237,19.237,0,0,0-4.833-.6,17.18,17.18,0,0,0-6.394,1.1,11.336,11.336,0,0,0-4.493,3.122,10.665,10.665,0,0,0-2.334,4.791l7.792.625a4.647,4.647,0,0,1,1.778-2.511,5.924,5.924,0,0,1,3.6-.991,4.9,4.9,0,0,1,3.326,1.031,3.654,3.654,0,0,1,1.181,2.905v.136a1.643,1.643,0,0,1-.747,1.453,5.93,5.93,0,0,1-2.348.746q-1.6.245-4.235.489a26.453,26.453,0,0,0-4.317.76,12.278,12.278,0,0,0-3.638,1.6,7.616,7.616,0,0,0-2.525,2.755,8.817,8.817,0,0,0-.923,4.249,9,9,0,0,0,1.3,5,8.088,8.088,0,0,0,3.6,3.027,12.621,12.621,0,0,0,5.172,1.018,11.757,11.757,0,0,0,3.963-.611,8.962,8.962,0,0,0,2.933-1.683,8.364,8.364,0,0,0,1.955-2.511h.217v4.235h8.009V258.851a9.614,9.614,0,0,0-1.059-4.643A9.009,9.009,0,0,0,684.916,251.019Zm-4.438,17.471a5.179,5.179,0,0,1-.8,2.836,5.7,5.7,0,0,1-2.225,2.009,6.948,6.948,0,0,1-3.272.747,5.366,5.366,0,0,1-3.2-.9,3.009,3.009,0,0,1-1.249-2.606,3.194,3.194,0,0,1,.611-2,4.165,4.165,0,0,1,1.724-1.276,10.534,10.534,0,0,1,2.607-.692q.677-.108,1.52-.231t1.683-.285a13.921,13.921,0,0,0,1.534-.38,4.536,4.536,0,0,0,1.073-.462Z" transform="translate(-631.581 -238.869)" fill="#fff"/>
          <rect id="Rectangle_161033" data-name="Rectangle 161033" width="8.389" height="40.453" transform="translate(61.061)" fill="#fff"/>
          <path id="Path_103516" data-name="Path 103516" d="M777.8,238.9H768.14l-9.692,11.539h-.462V228.8H749.6v40.453h8.389v-9.641l2.275-2.6,8.259,12.239h9.855l-11.8-17.179Z" transform="translate(-676.318 -228.797)" fill="#fff"/>
          <path id="Path_103517" data-name="Path 103517" d="M831.793,264.607a13.568,13.568,0,0,0-6.6-2.9l-5.511-1.086a6.4,6.4,0,0,1-2.946-1.209,2.419,2.419,0,0,1-.855-1.86,2.464,2.464,0,0,1,1.317-2.172,6.11,6.11,0,0,1,3.272-.815,5.438,5.438,0,0,1,3.5,1.045,4.263,4.263,0,0,1,1.6,2.484l7.684-.462a9.368,9.368,0,0,0-3.842-6.611q-3.3-2.429-9.054-2.43a18.4,18.4,0,0,0-6.774,1.14,10.119,10.119,0,0,0-4.493,3.258,8.129,8.129,0,0,0-1.6,5.05,7.533,7.533,0,0,0,2.172,5.566,12.694,12.694,0,0,0,6.6,3.068l5.24,1.086q3.909.787,3.91,3.041a2.554,2.554,0,0,1-1.371,2.2,7.708,7.708,0,0,1-7.262-.082,4.309,4.309,0,0,1-1.846-2.8l-8.227.435a9.678,9.678,0,0,0,4.168,6.841q3.57,2.526,9.6,2.525a18.064,18.064,0,0,0,6.978-1.262,11.432,11.432,0,0,0,4.778-3.5,8.321,8.321,0,0,0,1.737-5.254A6.87,6.87,0,0,0,831.793,264.607Z" transform="translate(-705.382 -238.869)" fill="#fff"/>
        </g>
      </g>
    </g>
  </g>
</svg>
