<svg xmlns="http://www.w3.org/2000/svg" width="56" height="56" viewBox="0 0 56 56">
  <g id="Group_175854" data-name="Group 175854" transform="translate(-164 -845)">
    <rect id="ic_Integrations_email" width="56" height="56" rx="28" transform="translate(164 845)" fill="#29a869"/>
    <g id="Group_173213" data-name="Group 173213" transform="translate(2.736 6.736)">
      <path id="campaign_FILL0_wght400_GRAD0_opsz48" d="M31.625,22.875v-2.55H38v2.55ZM33.75,35.2l-5.142-3.825,1.53-2.04L35.28,33.16ZM30.265,13.822l-1.53-2.04L33.75,8l1.53,2.04ZM9.525,33.5V26.7H6.55A2.539,2.539,0,0,1,4,24.15v-5.1A2.539,2.539,0,0,1,6.55,16.5H14.2l8.5-5.1V31.8l-8.5-5.1H12.075v6.8Zm14.875-6.2V15.9a7.763,7.763,0,0,1,1.849,2.486,7.692,7.692,0,0,1,0,6.417A7.763,7.763,0,0,1,24.4,27.295Z" transform="translate(168.264 844.663)" fill="#fff"/>
      <rect id="_Transparent_Rectangle_" data-name="&lt;Transparent Rectangle&gt;" width="34" height="34" transform="translate(172.264 849.264)" fill="none"/>
    </g>
  </g>
</svg>
