<svg id="view" xmlns="http://www.w3.org/2000/svg" width="24" height="24" viewBox="0 0 24 24">
  <path id="Path_103834" data-name="Path 103834" d="M23.272,12.93A12.416,12.416,0,0,0,12.159,5,12.416,12.416,0,0,0,1.045,12.93a.744.744,0,0,0,0,.506,12.416,12.416,0,0,0,11.114,7.93,12.416,12.416,0,0,0,11.114-7.93A.744.744,0,0,0,23.272,12.93ZM12.159,19.878a11.047,11.047,0,0,1-9.619-6.7,11.047,11.047,0,0,1,9.619-6.7,11.047,11.047,0,0,1,9.619,6.7A11.047,11.047,0,0,1,12.159,19.878Z" transform="translate(-0.256 -1.281)" fill="#868686"/>
  <path id="Path_103835" data-name="Path 103835" d="M14.463,10a4.463,4.463,0,1,0,4.463,4.463A4.463,4.463,0,0,0,14.463,10Zm0,7.439a2.976,2.976,0,1,1,2.976-2.976A2.976,2.976,0,0,1,14.463,17.439Z" transform="translate(-2.561 -2.561)" fill="#868686"/>
  <rect id="_Transparent_Rectangle_" data-name="&lt;Transparent Rectangle&gt;" width="24" height="24" fill="none"/>
</svg>
